ffmpeg started on 2025-06-27 at 12:14:21
Report written to "D:\Convert\FFMetrics\reports\ssim_report-6.txt"
Log level: 32
Command line:
ffmpeg -hide_banner -nostdin -i "G:\\\xc0\xed\xe8\xec\xe5\\[\xd2\xee\xef]\\\xcf\xf0\xee\xe4\xe5\xeb\xea\xe8 \xd1\xe0\xea\xf3\xf0\xfb\\Bonus\\Menu\\Sakura Trick TV Menu 5_HEVC.mkv" -i "G:\\\xc0\xed\xe8\xec\xe5\\[\xd2\xee\xef]\\\xcf\xf0\xee\xe4\xe5\xeb\xea\xe8 \xd1\xe0\xea\xf3\xf0\xfb\\Bonus\\Menu\\Sakura Trick TV Menu 5.mkv" -lavfi "[0:v]settb=AVTB,setpts=PTS-STARTPTS,format=pix_fmts=yuv420p10,fps=24000/1001,scale=1920:1080:flags=bicubic[main];[1:v]settb=AVTB,setpts=PTS-STARTPTS,format=pix_fmts=yuv420p10,fps=24000/1001,scale=1920:1080:flags=bicubic[ref];[main][ref]ssim=eof_action=endall:stats_file='D\\:/Convert/FFMetrics/logs/ssim_logfile-6.txt'" -f null -
Input #0, matroska,webm, from 'G:\Аниме\[Топ]\Проделки Сакуры\Bonus\Menu\Sakura Trick TV Menu 5_HEVC.mkv':
  Metadata:
    title           : Sakura Trick TV Menu 5
    ENCODER         : Lavf61.7.100
  Duration: 00:01:43.96, start: -0.021000, bitrate: 629 kb/s
  Stream #0:0(jpn): Video: hevc (Main 10), yuv420p10le(tv, bt709, progressive), 1920x1080 [SAR 1:1 DAR 16:9], 23.98 fps, 23.98 tbr, 1k tbn (default)
      Metadata:
        title           : [VCB & Hakugetsu & DMG]
        ENCODER         : Lavc61.19.100 libx265
        BPS             : 429401
        DURATION        : 00:01:43.936708333
        NUMBER_OF_FRAMES: 2492
        NUMBER_OF_BYTES : 5578786
        _STATISTICS_WRITING_APP: mkvpropedit v66.0.0 ('Josie') 64-bit
        _STATISTICS_WRITING_DATE_UTC: 2025-06-27 08:39:31
        _STATISTICS_TAGS: BPS DURATION NUMBER_OF_FRAMES NUMBER_OF_BYTES
  Stream #0:1(jpn): Audio: aac (LC), 48000 Hz, stereo, fltp (default)
      Metadata:
        title           : [Original]
        ENCODER         : Lavc61.19.100 aac
        BPS             : 196260
        DURATION        : 00:01:43.957000000
        NUMBER_OF_FRAMES: 4874
        NUMBER_OF_BYTES : 2550328
        _STATISTICS_WRITING_APP: mkvpropedit v66.0.0 ('Josie') 64-bit
        _STATISTICS_WRITING_DATE_UTC: 2025-06-27 08:39:31
        _STATISTICS_TAGS: BPS DURATION NUMBER_OF_FRAMES NUMBER_OF_BYTES
Input #1, matroska,webm, from 'G:\Аниме\[Топ]\Проделки Сакуры\Bonus\Menu\Sakura Trick TV Menu 5.mkv':
  Metadata:
    title           : Sakura Trick TV Menu 5
    encoder         : libebml v1.3.6 + libmatroska v1.4.9
    creation_time   : 2018-07-04T17:49:41.000000Z
  Duration: 00:01:43.94, start: 0.000000, bitrate: 1317 kb/s
  Stream #1:0(jpn): Video: h264 (High 10), yuv420p10le(tv, bt709/unknown/unknown, progressive), 1920x1080 [SAR 1:1 DAR 16:9], 23.98 fps, 23.98 tbr, 1k tbn (default)
      Metadata:
        title           : [VCB & Hakugetsu & DMG]
  Stream #1:1(jpn): Audio: flac, 48000 Hz, stereo, s16 (default)
      Metadata:
        title           : [Original]
Stream mapping:
  Stream #0:0 (hevc) -> settb:default
  Stream #1:0 (h264) -> settb:default
  ssim:default -> Stream #0:0 (wrapped_avframe)
  Stream #0:1 -> #0:1 (aac (native) -> pcm_s16le (native))
Output #0, null, to 'pipe:':
  Metadata:
    title           : Sakura Trick TV Menu 5
    encoder         : Lavf61.7.100
  Stream #0:0: Video: wrapped_avframe, yuv420p10le(tv, bt709, progressive), 1920x1080 [SAR 1:1 DAR 16:9], q=2-31, 200 kb/s, 23.98 fps, 23.98 tbn
      Metadata:
        encoder         : Lavc61.19.100 wrapped_avframe
  Stream #0:1(jpn): Audio: pcm_s16le, 48000 Hz, stereo, s16, 1536 kb/s (default)
      Metadata:
        title           : [Original]
        _STATISTICS_TAGS: BPS DURATION NUMBER_OF_FRAMES NUMBER_OF_BYTES
        BPS             : 196260
        DURATION        : 00:01:43.957000000
        NUMBER_OF_FRAMES: 4874
        NUMBER_OF_BYTES : 2550328
        _STATISTICS_WRITING_APP: mkvpropedit v66.0.0 ('Josie') 64-bit
        _STATISTICS_WRITING_DATE_UTC: 2025-06-27 08:39:31
        encoder         : Lavc61.19.100 pcm_s16le
frame=  197 fps=0.0 q=-0.0 size=N/A time=00:00:08.21 bitrate=N/A speed=15.9x    frame=  475 fps=462 q=-0.0 size=N/A time=00:00:19.81 bitrate=N/A speed=19.3x    frame=  756 fps=486 q=-0.0 size=N/A time=00:00:31.53 bitrate=N/A speed=20.3x    frame= 1032 fps=500 q=-0.0 size=N/A time=00:00:43.04 bitrate=N/A speed=20.9x    frame= 1311 fps=509 q=-0.0 size=N/A time=00:00:54.67 bitrate=N/A speed=21.2x    frame= 1597 fps=515 q=-0.0 size=N/A time=00:01:06.60 bitrate=N/A speed=21.5x    frame= 1877 fps=519 q=-0.0 size=N/A time=00:01:18.28 bitrate=N/A speed=21.7x    frame= 2160 fps=524 q=-0.0 size=N/A time=00:01:30.09 bitrate=N/A speed=21.8x    frame= 2451 fps=527 q=-0.0 size=N/A time=00:01:42.22 bitrate=N/A speed=  22x    [Parsed_ssim_10 @ 00000235b1dd5780] SSIM Y:0.995079 (23.079577) U:0.993024 (21.563697) V:0.993952 (22.183722) All:0.994549 (22.634959)
[out#0/null @ 00000235b189ea40] video:1071KiB audio:19496KiB subtitle:0KiB other streams:0KiB global headers:0KiB muxing overhead: unknown
frame= 2492 fps=530 q=-0.0 Lsize=N/A time=00:01:43.93 bitrate=N/A speed=22.1x    
